<?xml version="1.0" encoding="UTF-8" standalone="no"?>
<!DOCTYPE svg PUBLIC "-//W3C//DTD SVG 1.1//EN" "http://www.w3.org/Graphics/SVG/1.1/DTD/svg11.dtd">
<svg width="100%" height="100%" viewBox="0 0 100 100" version="1.1" xmlns="http://www.w3.org/2000/svg" xmlns:xlink="http://www.w3.org/1999/xlink" xml:space="preserve" style="fill-rule:evenodd;clip-rule:evenodd;stroke-linejoin:round;stroke-miterlimit:1.41421;">
    <g transform="matrix(1,0,0,1,-28.8535,39.8509)">
        <path d="M71.645,-0.174C70.18,4.936 68.552,9.526 66.762,13.595L78.432,13.595L78.432,19.601L60.268,19.601L60.268,30.295L77.26,30.295L77.26,36.3L60.268,36.3L60.268,55.002L53.383,55.002L53.383,36.3L36.977,36.3L36.977,30.295L53.383,30.295L53.383,19.601L35.659,19.601L35.659,13.595L46.45,13.595C45.05,7.378 43.78,2.788 42.641,-0.174L33.461,-0.174L33.461,-6.18L53.383,-6.18L53.383,-16.58L37.856,-16.58L37.856,-22.586L53.383,-22.586L53.383,-34.989L60.268,-34.989L60.268,-22.586L76.137,-22.586L76.137,-16.58L60.268,-16.58L60.268,-6.18L78.334,-6.18L78.334,-0.174L71.645,-0.174ZM64.76,-0.174L49.282,-0.174C50.942,4.806 52.162,9.396 52.944,13.595L60.268,13.595C62.156,9.396 63.653,4.806 64.76,-0.174ZM117.641,-29.959L117.641,-8.084C117.641,-5.22 117.071,-3.283 115.932,-2.274C114.793,-1.33 112.628,-0.858 109.438,-0.858C106.052,-0.858 102.309,-1.053 98.207,-1.444L97.426,-8.182C101.3,-7.564 104.571,-7.254 107.241,-7.254C109.715,-7.254 110.951,-8.459 110.951,-10.868L110.951,-23.758L88.198,-23.758L88.198,5.197L116.225,5.197L119.936,8.175C118.145,18.039 114.874,27.121 110.121,35.421C113.67,40.369 118.504,44.601 124.623,48.117L120.326,54.513C114.728,50.412 110.056,46.033 106.313,41.379C102.439,46.782 98.045,51.584 93.129,55.783L88.637,50.314C93.748,46.375 98.272,41.574 102.211,35.91C96.71,28.195 92.918,19.992 90.834,11.3L88.198,11.3L88.198,55.002L81.557,55.002L81.557,-29.959L117.641,-29.959ZM96.84,11.3C98.403,17.095 101.365,23.328 105.727,30.002C108.917,24.142 111.147,17.908 112.416,11.3L96.84,11.3Z" style="fill-rule:nonzero;"/>
    </g>
</svg>
